    <svg version="1.1"
        id="bg_drunk"
        xmlns="http://www.w3.org/2000/svg"
        xmlns:xlink="http://www.w3.org/1999/xlink"
        x="0px"
        y="0px"
        height="64px"
        width="64px"
        
	 viewBox="0 0 480 480" style="stroke:currentColor; opacity:.25; enable-background:new 0 0 480 480;" xml:space="preserve">
<path id="XMLID_1252_" d="M170,130h-2c-5.523,0-10-4.477-10-10s4.477-10,10-10h2c5.523,0,10,4.477,10,10S175.523,130,170,130z
	 M360,360v30c0,5.523-4.477,10-10,10H240c-38.598,0-70-31.402-70-70v-30c0-5.523,4.477-10,10-10h110
	C328.598,290,360,321.402,360,360z M340,360c0-27.57-22.43-50-50-50H190v20c0,27.57,22.43,50,50,50h100V360z M479.988,240.489
	c0.008,0.169,0.012,0.34,0.012,0.511v109c0,71.682-58.318,130-130,130H220c-71.682,0-130-58.318-130-130V200H40
	c-22.056,0-40-17.944-40-40s17.944-40,40-40h51.841c7.596-40.85,38.021-74.681,78.605-85.98C173.34,14.79,189.975,0,210,0h10
	c5.523,0,10,4.477,10,10v24.145C276.816,47.393,310,90.66,310,140v90c38.598,0,70-31.402,70-70c0-5.523,4.477-10,10-10
	c49.626,0,90,40.374,90,90C480,240.164,479.996,240.327,479.988,240.489z M90,140H40c-11.028,0-20,8.972-20,20s8.972,20,20,20h50
	V140z M460,244.364c-0.641-1.319-1-2.799-1-4.364c0-1.465,0.315-2.856,0.881-4.109c-1.954-33.559-27.655-60.85-60.504-65.265
	C394.102,215.261,356.031,250,310,250h-10c-5.523,0-10-4.477-10-10V140c0-42.638-30.276-79.73-71.989-88.198
	c-4.661-0.946-8.011-5.044-8.011-9.8V20c-11.028,0-20,8.972-20,20v2.002c0,4.756-3.35,8.854-8.011,9.8
	C140.276,60.27,110,97.362,110,140v210c0,60.654,49.346,110,110,110h130c60.654,0,110-49.346,110-110V244.364z"/>
<g>
</g>
<g>
</g>
<g>
</g>
<g>
</g>
<g>
</g>
<g>
</g>
<g>
</g>
<g>
</g>
<g>
</g>
<g>
</g>
<g>
</g>
<g>
</g>
<g>
</g>
<g>
</g>
<g>
</g>
</svg>